<svg xmlns="http://www.w3.org/2000/svg" xmlns:xlink="http://www.w3.org/1999/xlink" xml:space="preserve" version="1.1" style="shape-rendering:geometricPrecision;text-rendering:geometricPrecision;image-rendering:optimizeQuality;" viewBox="0 0 14.86 18.575" x="0px" y="0px" fill-rule="evenodd" clip-rule="evenodd"><defs><style type="text/css">
   
    .fil0 {fill:black;fill-rule:nonzero}
   
  </style></defs><g><path class="fil0" d="M7.43 0c2.05,0 3.91,0.83 5.25,2.18 1.34,1.34 2.18,3.2 2.18,5.25 0,2.05 -0.83,3.91 -2.18,5.25 -1.34,1.34 -3.2,2.18 -5.25,2.18 -2.05,0 -3.91,-0.83 -5.25,-2.18 -1.34,-1.34 -2.18,-3.2 -2.18,-5.25 0,-2.05 0.83,-3.91 2.18,-5.25 1.34,-1.34 3.2,-2.18 5.25,-2.18zm5.18 2.25c-1.33,-1.33 -3.16,-2.15 -5.18,-2.15 -2.02,0 -3.85,0.82 -5.18,2.15 -1.33,1.33 -2.15,3.16 -2.15,5.18 0,2.02 0.82,3.85 2.15,5.18 1.33,1.33 3.16,2.15 5.18,2.15 2.02,0 3.85,-0.82 5.18,-2.15 1.33,-1.33 2.15,-3.16 2.15,-5.18 0,-2.02 -0.82,-3.85 -2.15,-5.18z"/><path class="fil0" d="M7.43 0.22c0.95,0.02 1.86,0.22 2.69,0.56 0.86,0.36 1.64,0.88 2.3,1.53 0.66,0.64 1.19,1.41 1.56,2.26 0.36,0.82 0.57,1.72 0.6,2.66l0 0c0,0.5 -0.05,0.98 -0.13,1.45 -0.09,0.48 -0.23,0.95 -0.4,1.4 -0.17,0.44 -0.38,0.85 -0.62,1.25 -0.25,0.4 -0.53,0.77 -0.84,1.11l-0 0c-0.66,0.64 -1.44,1.17 -2.3,1.53 -0.83,0.35 -1.74,0.55 -2.69,0.56 -0.49,0.02 -0.97,-0.01 -1.44,-0.09 -0.48,-0.07 -0.94,-0.19 -1.38,-0.35l-0 -0c-0.43,-0.19 -0.85,-0.41 -1.24,-0.67 -0.39,-0.26 -0.76,-0.56 -1.1,-0.88 -0.34,-0.33 -0.65,-0.68 -0.92,-1.06 -0.27,-0.38 -0.51,-0.78 -0.71,-1.2l-0 -0c-0.17,-0.45 -0.31,-0.91 -0.4,-1.4 -0.09,-0.47 -0.13,-0.96 -0.13,-1.45 0,-0.95 0.18,-1.86 0.52,-2.7 0.35,-0.87 0.85,-1.65 1.48,-2.31l0 -0c0.34,-0.33 0.71,-0.62 1.1,-0.88 0.39,-0.26 0.8,-0.49 1.24,-0.67 0.44,-0.19 0.9,-0.34 1.38,-0.45 0.47,-0.1 0.95,-0.17 1.44,-0.18l0 0zm2.65 0.66c-0.82,-0.34 -1.71,-0.54 -2.65,-0.56 -0.48,0.02 -0.96,0.08 -1.42,0.18 -0.47,0.11 -0.93,0.26 -1.36,0.44 -0.43,0.18 -0.84,0.41 -1.22,0.66 -0.39,0.26 -0.75,0.55 -1.08,0.87 -0.62,0.65 -1.12,1.42 -1.46,2.28 -0.33,0.82 -0.51,1.72 -0.51,2.66 0,0.49 0.05,0.97 0.13,1.43 0.09,0.48 0.22,0.94 0.39,1.38 0.2,0.42 0.43,0.81 0.7,1.18 0.27,0.38 0.57,0.73 0.91,1.05 0.33,0.32 0.7,0.61 1.08,0.87 0.38,0.26 0.79,0.48 1.22,0.66 0.44,0.16 0.89,0.27 1.36,0.35 0.46,0.07 0.93,0.1 1.42,0.08l0 0c0.94,-0.02 1.83,-0.21 2.65,-0.56 0.85,-0.36 1.62,-0.87 2.27,-1.51 0.3,-0.34 0.58,-0.7 0.82,-1.1 0.24,-0.39 0.45,-0.8 0.62,-1.23 0.17,-0.44 0.31,-0.9 0.4,-1.38 0.09,-0.46 0.13,-0.94 0.13,-1.43 -0.03,-0.93 -0.24,-1.81 -0.59,-2.62 -0.37,-0.84 -0.9,-1.59 -1.54,-2.23 -0.65,-0.64 -1.42,-1.15 -2.27,-1.51z"/><path class="fil0" d="M7.43 0.45c0.9,0.03 1.75,0.23 2.54,0.57 0.81,0.35 1.55,0.84 2.18,1.44 0.63,0.6 1.14,1.32 1.52,2.11 0.36,0.76 0.58,1.6 0.64,2.47l0 0c0,0.49 -0.04,0.96 -0.12,1.42 -0.08,0.47 -0.21,0.94 -0.36,1.38 -0.16,0.43 -0.35,0.85 -0.57,1.24 -0.22,0.4 -0.48,0.77 -0.76,1.12l-0 0c-0.63,0.6 -1.37,1.1 -2.18,1.44 -0.79,0.33 -1.64,0.53 -2.53,0.57 -0.48,0.03 -0.94,0.02 -1.4,-0.03 -0.47,-0.05 -0.92,-0.14 -1.35,-0.26l-0.01 -0c-0.42,-0.19 -0.83,-0.41 -1.22,-0.66 -0.39,-0.26 -0.75,-0.54 -1.09,-0.86 -0.34,-0.31 -0.65,-0.65 -0.93,-1.02 -0.28,-0.36 -0.53,-0.74 -0.74,-1.15l-0 -0.01c-0.16,-0.44 -0.28,-0.9 -0.36,-1.38 -0.08,-0.46 -0.12,-0.94 -0.12,-1.42 0,-0.9 0.17,-1.76 0.47,-2.56 0.31,-0.83 0.77,-1.58 1.35,-2.21l0 -0c0.34,-0.31 0.7,-0.6 1.09,-0.86 0.38,-0.25 0.79,-0.48 1.22,-0.66 0.43,-0.19 0.88,-0.35 1.35,-0.46 0.45,-0.11 0.92,-0.19 1.4,-0.22l0.01 0zm2.5 0.66c-0.77,-0.33 -1.62,-0.53 -2.5,-0.56 -0.47,0.03 -0.93,0.11 -1.38,0.22 -0.46,0.11 -0.9,0.27 -1.33,0.46 -0.42,0.19 -0.82,0.41 -1.2,0.66 -0.38,0.25 -0.74,0.54 -1.08,0.85 -0.56,0.63 -1.02,1.37 -1.32,2.18 -0.3,0.78 -0.46,1.63 -0.46,2.52 0,0.48 0.04,0.95 0.12,1.41 0.08,0.47 0.2,0.92 0.36,1.36 0.21,0.4 0.45,0.77 0.73,1.13 0.28,0.36 0.58,0.7 0.92,1.01 0.33,0.31 0.7,0.59 1.08,0.85 0.38,0.25 0.78,0.47 1.2,0.66 0.43,0.12 0.87,0.21 1.33,0.26 0.45,0.05 0.91,0.06 1.38,0.02l0 0c0.88,-0.03 1.73,-0.23 2.5,-0.56 0.8,-0.34 1.53,-0.83 2.15,-1.42 0.28,-0.34 0.53,-0.71 0.75,-1.1 0.22,-0.39 0.41,-0.8 0.56,-1.22 0.16,-0.44 0.28,-0.89 0.36,-1.36 0.08,-0.46 0.12,-0.93 0.12,-1.41 -0.06,-0.86 -0.28,-1.68 -0.63,-2.43 -0.37,-0.78 -0.88,-1.48 -1.49,-2.08 -0.62,-0.6 -1.35,-1.08 -2.15,-1.42z"/><path class="fil0" d="M7.43 0.67c0.84,0.05 1.64,0.25 2.38,0.57 0.77,0.33 1.47,0.8 2.07,1.36 0.6,0.56 1.1,1.22 1.47,1.95 0.36,0.71 0.59,1.48 0.68,2.29l0 0.01c0,0.48 -0.04,0.94 -0.11,1.4 -0.07,0.47 -0.18,0.92 -0.33,1.36 -0.14,0.43 -0.31,0.84 -0.51,1.23 -0.2,0.4 -0.43,0.78 -0.68,1.13l-0.01 0.01c-0.6,0.56 -1.3,1.03 -2.07,1.36 -0.74,0.32 -1.54,0.52 -2.38,0.57 -0.46,0.05 -0.91,0.06 -1.35,0.04 -0.46,-0.02 -0.9,-0.08 -1.32,-0.18l-0.01 -0c-0.42,-0.19 -0.81,-0.41 -1.19,-0.66 -0.38,-0.25 -0.75,-0.53 -1.09,-0.83 -0.34,-0.3 -0.65,-0.63 -0.94,-0.97 -0.28,-0.34 -0.54,-0.71 -0.77,-1.09l-0 -0.01c-0.14,-0.44 -0.25,-0.89 -0.33,-1.36 -0.07,-0.46 -0.11,-0.92 -0.11,-1.4 0,-0.85 0.15,-1.66 0.42,-2.42 0.28,-0.78 0.7,-1.5 1.21,-2.12l0.01 -0.01c0.34,-0.3 0.7,-0.58 1.09,-0.83 0.38,-0.25 0.78,-0.47 1.19,-0.66 0.42,-0.19 0.86,-0.35 1.32,-0.48 0.44,-0.12 0.9,-0.21 1.36,-0.26l0.01 -0zm2.34 0.66c-0.73,-0.32 -1.52,-0.51 -2.35,-0.56 -0.46,0.05 -0.91,0.13 -1.34,0.25 -0.45,0.12 -0.88,0.28 -1.3,0.47 -0.41,0.19 -0.81,0.4 -1.18,0.65 -0.38,0.25 -0.74,0.52 -1.07,0.82 -0.51,0.61 -0.91,1.31 -1.19,2.08 -0.27,0.74 -0.41,1.54 -0.41,2.38 0,0.47 0.04,0.93 0.11,1.38 0.07,0.46 0.18,0.91 0.32,1.34 0.22,0.38 0.48,0.73 0.75,1.07 0.28,0.34 0.59,0.66 0.93,0.96 0.33,0.3 0.69,0.57 1.07,0.82 0.37,0.24 0.77,0.46 1.18,0.65 0.42,0.09 0.85,0.15 1.3,0.17 0.44,0.02 0.88,0.01 1.34,-0.04l0 -0c0.83,-0.05 1.62,-0.24 2.35,-0.56 0.76,-0.33 1.44,-0.78 2.04,-1.34 0.25,-0.35 0.47,-0.72 0.67,-1.11 0.2,-0.39 0.36,-0.79 0.5,-1.22 0.14,-0.43 0.25,-0.88 0.32,-1.34 0.07,-0.45 0.11,-0.91 0.11,-1.38 -0.08,-0.79 -0.31,-1.55 -0.67,-2.25 -0.36,-0.72 -0.86,-1.37 -1.45,-1.92 -0.59,-0.56 -1.28,-1.01 -2.04,-1.34z"/><path class="fil0" d="M7.43 0.89c0.78,0.06 1.54,0.26 2.23,0.57 0.72,0.32 1.38,0.75 1.95,1.28 0.57,0.52 1.05,1.13 1.42,1.8 0.36,0.65 0.6,1.36 0.72,2.1l0 0.01c0,0.47 -0.03,0.92 -0.1,1.37 -0.07,0.46 -0.16,0.91 -0.29,1.34 -0.12,0.42 -0.28,0.83 -0.45,1.22 -0.18,0.4 -0.38,0.78 -0.61,1.14l-0.01 0.01c-0.57,0.52 -1.23,0.96 -1.95,1.28 -0.7,0.31 -1.45,0.5 -2.23,0.57 -0.45,0.06 -0.88,0.09 -1.31,0.1 -0.44,0 -0.88,-0.03 -1.29,-0.09l-0.01 -0c-0.41,-0.19 -0.8,-0.41 -1.17,-0.65 -0.38,-0.24 -0.74,-0.51 -1.08,-0.8 -0.34,-0.29 -0.65,-0.6 -0.95,-0.93 -0.29,-0.33 -0.56,-0.67 -0.8,-1.03l-0.01 -0.01c-0.13,-0.43 -0.23,-0.88 -0.29,-1.34 -0.06,-0.45 -0.1,-0.91 -0.1,-1.37 0,-0.8 0.13,-1.56 0.37,-2.27 0.25,-0.74 0.62,-1.42 1.08,-2.02l0.01 -0.01c0.34,-0.29 0.7,-0.56 1.08,-0.8 0.37,-0.24 0.77,-0.46 1.17,-0.65 0.41,-0.19 0.84,-0.36 1.28,-0.49 0.43,-0.13 0.87,-0.23 1.32,-0.29l0.01 -0zm2.19 0.66c-0.68,-0.3 -1.42,-0.5 -2.19,-0.56 -0.44,0.06 -0.88,0.16 -1.3,0.29 -0.44,0.13 -0.86,0.29 -1.27,0.48 -0.4,0.19 -0.79,0.4 -1.16,0.64 -0.37,0.24 -0.73,0.51 -1.06,0.79 -0.45,0.58 -0.81,1.25 -1.06,1.98 -0.24,0.7 -0.37,1.46 -0.37,2.24 0,0.46 0.03,0.91 0.1,1.36 0.06,0.45 0.16,0.89 0.29,1.32 0.23,0.35 0.5,0.7 0.78,1.02 0.29,0.33 0.6,0.63 0.94,0.92 0.34,0.29 0.69,0.55 1.07,0.8 0.37,0.24 0.75,0.45 1.16,0.64 0.41,0.06 0.83,0.09 1.27,0.09 0.42,-0 0.86,-0.03 1.3,-0.1l0 -0c0.77,-0.06 1.51,-0.26 2.2,-0.56 0.71,-0.31 1.36,-0.74 1.92,-1.25 0.22,-0.35 0.42,-0.73 0.6,-1.12 0.17,-0.39 0.32,-0.79 0.45,-1.21 0.13,-0.43 0.22,-0.87 0.29,-1.33 0.06,-0.44 0.1,-0.89 0.1,-1.35 -0.11,-0.73 -0.35,-1.42 -0.7,-2.06 -0.36,-0.66 -0.84,-1.26 -1.4,-1.77 -0.56,-0.52 -1.21,-0.94 -1.93,-1.26z"/><path class="fil0" d="M7.43 1.12c0.73,0.08 1.43,0.28 2.08,0.57 0.67,0.3 1.3,0.71 1.84,1.19 0.54,0.48 1.01,1.04 1.37,1.65 0.36,0.6 0.61,1.24 0.75,1.91l0 0.01c0,0.45 -0.03,0.9 -0.09,1.34 -0.06,0.45 -0.14,0.89 -0.25,1.32 -0.11,0.42 -0.24,0.82 -0.39,1.21 -0.16,0.4 -0.34,0.78 -0.53,1.14l-0.01 0.01c-0.54,0.48 -1.16,0.89 -1.84,1.19 -0.65,0.29 -1.35,0.49 -2.08,0.57 -0.43,0.08 -0.86,0.13 -1.27,0.16 -0.43,0.03 -0.85,0.02 -1.26,-0l-0.02 -0c-0.4,-0.19 -0.78,-0.4 -1.15,-0.64 -0.37,-0.24 -0.73,-0.5 -1.07,-0.78 -0.34,-0.28 -0.66,-0.57 -0.95,-0.89 -0.3,-0.31 -0.57,-0.64 -0.82,-0.98l-0.01 -0.02c-0.11,-0.43 -0.2,-0.87 -0.25,-1.32 -0.06,-0.44 -0.09,-0.89 -0.09,-1.34 0,-0.74 0.12,-1.46 0.33,-2.13 0.22,-0.7 0.54,-1.35 0.94,-1.92l0.01 -0.01c0.34,-0.28 0.7,-0.54 1.07,-0.78 0.37,-0.24 0.76,-0.45 1.15,-0.64 0.41,-0.19 0.82,-0.36 1.25,-0.5 0.42,-0.14 0.85,-0.25 1.28,-0.33l0.01 -0zm2.04 0.66c-0.64,-0.29 -1.33,-0.48 -2.04,-0.56 -0.43,0.08 -0.85,0.19 -1.26,0.32 -0.42,0.14 -0.84,0.31 -1.24,0.5 -0.4,0.19 -0.78,0.4 -1.14,0.63 -0.37,0.23 -0.72,0.49 -1.06,0.77 -0.39,0.56 -0.71,1.2 -0.93,1.88 -0.21,0.66 -0.32,1.37 -0.32,2.1 0,0.45 0.03,0.9 0.08,1.33 0.06,0.44 0.14,0.88 0.25,1.3 0.25,0.33 0.52,0.66 0.81,0.96 0.29,0.31 0.61,0.6 0.95,0.88 0.34,0.28 0.69,0.53 1.06,0.77 0.36,0.23 0.74,0.44 1.13,0.63 0.4,0.03 0.82,0.03 1.24,0 0.41,-0.02 0.83,-0.08 1.26,-0.15l0 -0c0.72,-0.08 1.41,-0.27 2.05,-0.56 0.66,-0.3 1.27,-0.7 1.81,-1.17 0.19,-0.36 0.37,-0.73 0.52,-1.12 0.15,-0.39 0.28,-0.79 0.39,-1.2 0.11,-0.42 0.19,-0.86 0.25,-1.31 0.06,-0.43 0.08,-0.88 0.08,-1.33 -0.14,-0.66 -0.39,-1.29 -0.74,-1.88 -0.36,-0.6 -0.82,-1.15 -1.35,-1.62 -0.54,-0.48 -1.15,-0.87 -1.81,-1.17z"/><path class="fil0" d="M7.44 1.34c0.67,0.1 1.32,0.29 1.93,0.57 0.63,0.29 1.21,0.66 1.72,1.11 0.51,0.44 0.96,0.94 1.32,1.49 0.35,0.54 0.62,1.12 0.79,1.73l0 0.01c0,0.44 -0.03,0.88 -0.07,1.32 -0.05,0.44 -0.12,0.88 -0.22,1.3 -0.09,0.41 -0.21,0.82 -0.34,1.2 -0.13,0.4 -0.29,0.78 -0.46,1.15l-0.01 0.02c-0.52,0.44 -1.1,0.82 -1.72,1.11 -0.61,0.28 -1.25,0.48 -1.92,0.57 -0.42,0.1 -0.83,0.17 -1.23,0.22 -0.42,0.05 -0.83,0.08 -1.23,0.08l-0.02 -0.01c-0.39,-0.19 -0.77,-0.4 -1.13,-0.63 -0.37,-0.23 -0.73,-0.48 -1.06,-0.75 -0.34,-0.27 -0.66,-0.55 -0.96,-0.84 -0.3,-0.3 -0.59,-0.6 -0.85,-0.92l-0.01 -0.02c-0.1,-0.42 -0.17,-0.86 -0.22,-1.3 -0.05,-0.43 -0.07,-0.87 -0.07,-1.32 0,-0.69 0.1,-1.36 0.28,-1.99 0.19,-0.66 0.47,-1.27 0.81,-1.82l0.01 -0.01c0.34,-0.27 0.69,-0.52 1.06,-0.75 0.36,-0.23 0.74,-0.44 1.13,-0.63 0.4,-0.19 0.8,-0.37 1.22,-0.52 0.41,-0.15 0.82,-0.27 1.25,-0.37l0.02 -0zm1.88 0.67c-0.59,-0.27 -1.23,-0.47 -1.89,-0.56 -0.41,0.1 -0.82,0.22 -1.22,0.36 -0.41,0.15 -0.82,0.32 -1.21,0.51 -0.39,0.19 -0.76,0.4 -1.12,0.63 -0.36,0.23 -0.71,0.48 -1.05,0.74 -0.34,0.54 -0.61,1.14 -0.79,1.79 -0.18,0.62 -0.27,1.28 -0.27,1.96 0,0.44 0.03,0.88 0.07,1.3 0.05,0.44 0.12,0.87 0.21,1.28 0.26,0.31 0.54,0.62 0.84,0.91 0.3,0.29 0.62,0.57 0.95,0.84 0.34,0.27 0.69,0.51 1.06,0.74 0.36,0.23 0.73,0.43 1.11,0.62 0.39,-0.01 0.8,-0.03 1.21,-0.08 0.4,-0.05 0.81,-0.12 1.22,-0.21l0 -0c0.66,-0.1 1.3,-0.29 1.9,-0.56 0.61,-0.28 1.19,-0.65 1.69,-1.08 0.17,-0.36 0.32,-0.74 0.45,-1.13 0.13,-0.39 0.24,-0.79 0.33,-1.19 0.09,-0.42 0.17,-0.85 0.22,-1.29 0.05,-0.42 0.07,-0.86 0.07,-1.3 -0.17,-0.59 -0.43,-1.16 -0.78,-1.69 -0.36,-0.54 -0.8,-1.04 -1.3,-1.47 -0.51,-0.44 -1.08,-0.81 -1.7,-1.09z"/><path class="fil0" d="M7.44 1.57c0.62,0.11 1.21,0.31 1.77,0.57 0.58,0.27 1.12,0.62 1.61,1.02 0.48,0.4 0.91,0.85 1.27,1.34 0.35,0.48 0.64,1 0.83,1.54l0 0.02c0,0.43 -0.02,0.86 -0.06,1.29 -0.04,0.44 -0.1,0.87 -0.18,1.29 -0.08,0.41 -0.17,0.81 -0.28,1.2 -0.11,0.4 -0.24,0.79 -0.38,1.16l-0.02 0.02c-0.49,0.4 -1.03,0.75 -1.61,1.02 -0.56,0.26 -1.16,0.46 -1.77,0.57 -0.4,0.11 -0.8,0.2 -1.19,0.28 -0.41,0.08 -0.81,0.13 -1.2,0.17l-0.03 -0.01c-0.38,-0.19 -0.75,-0.4 -1.11,-0.62 -0.36,-0.23 -0.72,-0.47 -1.06,-0.72 -0.34,-0.25 -0.66,-0.52 -0.97,-0.8 -0.31,-0.28 -0.6,-0.57 -0.88,-0.87l-0.01 -0.03c-0.08,-0.42 -0.14,-0.85 -0.18,-1.29 -0.04,-0.42 -0.06,-0.86 -0.06,-1.29 0,-0.64 0.08,-1.26 0.23,-1.85 0.16,-0.62 0.39,-1.2 0.68,-1.72l0.01 -0.02c0.34,-0.26 0.69,-0.5 1.06,-0.72 0.36,-0.22 0.73,-0.43 1.11,-0.62 0.39,-0.19 0.78,-0.37 1.19,-0.53 0.4,-0.15 0.8,-0.29 1.21,-0.4l0.02 -0zm1.73 0.67c-0.55,-0.26 -1.13,-0.45 -1.74,-0.56 -0.4,0.11 -0.8,0.24 -1.19,0.4 -0.4,0.16 -0.79,0.33 -1.18,0.52 -0.38,0.19 -0.75,0.4 -1.1,0.62 -0.36,0.22 -0.71,0.46 -1.04,0.71 -0.28,0.51 -0.51,1.08 -0.66,1.69 -0.15,0.58 -0.23,1.19 -0.23,1.82 0,0.43 0.02,0.86 0.06,1.28 0.04,0.43 0.1,0.85 0.18,1.26 0.27,0.29 0.56,0.58 0.86,0.85 0.31,0.28 0.63,0.54 0.96,0.79 0.34,0.25 0.69,0.49 1.05,0.72 0.35,0.22 0.72,0.42 1.09,0.61 0.38,-0.04 0.78,-0.09 1.18,-0.17 0.39,-0.07 0.78,-0.16 1.18,-0.27l0 -0c0.61,-0.11 1.19,-0.31 1.75,-0.57 0.57,-0.27 1.1,-0.61 1.58,-1 0.14,-0.37 0.26,-0.75 0.37,-1.14 0.11,-0.39 0.2,-0.78 0.28,-1.19 0.08,-0.42 0.14,-0.84 0.18,-1.28 0.04,-0.42 0.06,-0.84 0.06,-1.27 -0.19,-0.53 -0.47,-1.03 -0.82,-1.51 -0.35,-0.48 -0.77,-0.93 -1.25,-1.32 -0.48,-0.4 -1.02,-0.74 -1.59,-1.01z"/><path class="fil0" d="M7.44 1.79c0.56,0.13 1.1,0.33 1.62,0.58 0.53,0.26 1.04,0.58 1.49,0.94 0.45,0.36 0.86,0.76 1.22,1.19 0.35,0.43 0.65,0.88 0.87,1.35l0.01 0.02c0,0.42 -0.02,0.85 -0.05,1.26 -0.03,0.43 -0.08,0.85 -0.15,1.27 -0.06,0.4 -0.14,0.8 -0.22,1.19 -0.09,0.4 -0.19,0.79 -0.31,1.17l-0.02 0.03c-0.46,0.36 -0.96,0.68 -1.49,0.94 -0.52,0.25 -1.06,0.45 -1.62,0.58 -0.39,0.13 -0.77,0.24 -1.15,0.33 -0.4,0.1 -0.79,0.19 -1.17,0.26l-0.03 -0c-0.37,-0.19 -0.74,-0.4 -1.09,-0.62 -0.36,-0.22 -0.71,-0.45 -1.05,-0.7 -0.34,-0.24 -0.66,-0.49 -0.98,-0.76 -0.32,-0.26 -0.62,-0.53 -0.91,-0.81l-0.02 -0.03c-0.06,-0.42 -0.11,-0.84 -0.15,-1.27 -0.03,-0.42 -0.05,-0.84 -0.05,-1.26 0,-0.59 0.07,-1.16 0.18,-1.7 0.13,-0.58 0.31,-1.12 0.54,-1.62l0.02 -0.02c0.34,-0.24 0.69,-0.48 1.05,-0.7 0.36,-0.22 0.72,-0.42 1.09,-0.62 0.38,-0.19 0.76,-0.38 1.15,-0.54 0.39,-0.16 0.77,-0.31 1.17,-0.44l0.03 -0zm1.58 0.67c-0.5,-0.25 -1.04,-0.44 -1.58,-0.57 -0.39,0.13 -0.77,0.27 -1.15,0.43 -0.39,0.16 -0.77,0.34 -1.15,0.54 -0.37,0.19 -0.73,0.4 -1.09,0.61 -0.35,0.22 -0.7,0.45 -1.03,0.69 -0.22,0.49 -0.41,1.02 -0.53,1.59 -0.12,0.54 -0.18,1.1 -0.18,1.68 0,0.42 0.02,0.84 0.05,1.25 0.03,0.42 0.08,0.84 0.14,1.24 0.28,0.27 0.58,0.54 0.89,0.8 0.31,0.26 0.64,0.51 0.97,0.75 0.34,0.24 0.69,0.47 1.04,0.69 0.35,0.21 0.71,0.42 1.07,0.6 0.37,-0.07 0.76,-0.15 1.15,-0.25 0.38,-0.1 0.76,-0.21 1.14,-0.33l0 -0c0.55,-0.13 1.09,-0.32 1.6,-0.57 0.52,-0.25 1.01,-0.56 1.46,-0.91 0.11,-0.37 0.21,-0.75 0.3,-1.15 0.09,-0.38 0.16,-0.78 0.22,-1.18 0.06,-0.41 0.11,-0.83 0.14,-1.26 0.03,-0.41 0.05,-0.82 0.05,-1.24 -0.22,-0.46 -0.51,-0.9 -0.85,-1.32 -0.35,-0.42 -0.75,-0.82 -1.2,-1.17 -0.45,-0.36 -0.95,-0.67 -1.47,-0.92z"/><path class="fil0" d="M7.44 2.01c0.5,0.15 1,0.34 1.47,0.58 0.49,0.24 0.95,0.53 1.38,0.85 0.42,0.32 0.82,0.66 1.17,1.03 0.35,0.37 0.66,0.76 0.91,1.16l0.01 0.03c0,0.41 -0.01,0.83 -0.04,1.23 -0.02,0.42 -0.06,0.84 -0.11,1.25 -0.05,0.4 -0.1,0.79 -0.17,1.18 -0.07,0.4 -0.14,0.79 -0.23,1.17l-0.02 0.03c-0.43,0.32 -0.89,0.61 -1.38,0.85 -0.47,0.24 -0.96,0.43 -1.46,0.58 -0.38,0.15 -0.76,0.28 -1.13,0.4 -0.37,0.12 -0.75,0.23 -1.11,0.33l-0.04 -0c-0.36,-0.19 -0.72,-0.4 -1.07,-0.61 -0.35,-0.21 -0.7,-0.44 -1.04,-0.67 -0.34,-0.23 -0.67,-0.47 -0.99,-0.71 -0.32,-0.25 -0.64,-0.5 -0.94,-0.76l-0.02 -0.03c-0.05,-0.41 -0.08,-0.83 -0.11,-1.25 -0.02,-0.41 -0.04,-0.82 -0.04,-1.23 0,-0.53 0.05,-1.06 0.14,-1.56 0.09,-0.53 0.23,-1.04 0.41,-1.52l0.02 -0.02c0.34,-0.23 0.69,-0.46 1.04,-0.67 0.35,-0.21 0.71,-0.42 1.07,-0.61 0.37,-0.19 0.74,-0.38 1.12,-0.55 0.37,-0.17 0.75,-0.33 1.13,-0.47l0.03 -0zm1.42 0.67c-0.46,-0.23 -0.94,-0.42 -1.43,-0.57 -0.37,0.14 -0.74,0.3 -1.11,0.47 -0.38,0.17 -0.75,0.36 -1.11,0.55 -0.36,0.19 -0.72,0.39 -1.07,0.6 -0.35,0.21 -0.69,0.43 -1.03,0.66 -0.17,0.47 -0.3,0.97 -0.4,1.49 -0.09,0.5 -0.14,1.01 -0.14,1.54 0,0.41 0.01,0.82 0.04,1.23 0.02,0.41 0.06,0.82 0.11,1.22 0.3,0.25 0.6,0.5 0.92,0.74 0.32,0.24 0.65,0.48 0.98,0.71 0.34,0.23 0.68,0.45 1.04,0.67 0.34,0.21 0.69,0.41 1.05,0.6 0.36,-0.1 0.72,-0.21 1.09,-0.33 0.37,-0.12 0.75,-0.26 1.13,-0.4l0 -0c0.5,-0.14 0.98,-0.34 1.45,-0.57 0.47,-0.24 0.93,-0.52 1.35,-0.83 0.08,-0.38 0.16,-0.76 0.22,-1.15 0.06,-0.38 0.12,-0.78 0.17,-1.17 0.05,-0.41 0.08,-0.83 0.11,-1.24 0.02,-0.4 0.04,-0.81 0.04,-1.21 -0.25,-0.39 -0.55,-0.78 -0.89,-1.14 -0.35,-0.37 -0.73,-0.71 -1.15,-1.02 -0.43,-0.32 -0.88,-0.6 -1.36,-0.84z"/><path class="fil0" d="M7.45 2.24c0.45,0.16 0.89,0.36 1.31,0.58 0.44,0.23 0.86,0.49 1.26,0.77 0.39,0.27 0.77,0.57 1.11,0.88 0.35,0.31 0.67,0.64 0.95,0.98l0.01 0.03c0,0.4 -0.01,0.81 -0.02,1.21 -0.02,0.42 -0.04,0.83 -0.07,1.23 -0.03,0.39 -0.07,0.78 -0.11,1.17 -0.04,0.4 -0.1,0.79 -0.15,1.18l-0 0.02 -0.02 0.01c-0.4,0.28 -0.82,0.54 -1.26,0.77 -0.42,0.22 -0.86,0.42 -1.31,0.58 -0.37,0.16 -0.74,0.32 -1.09,0.46 -0.36,0.15 -0.72,0.29 -1.08,0.42l-0.02 0.01 -0.02 -0.01c-0.35,-0.19 -0.71,-0.39 -1.05,-0.6 -0.35,-0.21 -0.7,-0.42 -1.04,-0.64 -0.34,-0.22 -0.67,-0.44 -0.99,-0.67 -0.33,-0.23 -0.65,-0.47 -0.97,-0.7l-0.02 -0.01 -0 -0.02c-0.03,-0.41 -0.06,-0.82 -0.07,-1.23 -0.02,-0.4 -0.02,-0.81 -0.02,-1.21 0,-0.48 0.03,-0.96 0.09,-1.42 0.06,-0.49 0.16,-0.97 0.27,-1.42l0.02 -0.03c0.34,-0.22 0.69,-0.44 1.04,-0.64 0.35,-0.21 0.7,-0.41 1.05,-0.6 0.36,-0.2 0.72,-0.39 1.09,-0.57 0.36,-0.18 0.72,-0.35 1.09,-0.51l0.04 -0zm1.27 0.67c-0.42,-0.22 -0.84,-0.41 -1.28,-0.57 -0.36,0.16 -0.71,0.33 -1.07,0.5 -0.37,0.18 -0.73,0.37 -1.08,0.56 -0.35,0.19 -0.7,0.39 -1.05,0.6 -0.34,0.2 -0.68,0.42 -1.02,0.63 -0.11,0.44 -0.2,0.91 -0.26,1.39 -0.06,0.46 -0.09,0.93 -0.09,1.4 0,0.41 0.01,0.81 0.02,1.2 0.02,0.4 0.04,0.8 0.07,1.2 0.31,0.23 0.63,0.46 0.95,0.69 0.33,0.23 0.66,0.45 0.99,0.67 0.34,0.22 0.69,0.43 1.03,0.64 0.34,0.2 0.68,0.4 1.03,0.59 0.35,-0.13 0.7,-0.27 1.05,-0.41 0.37,-0.15 0.73,-0.3 1.09,-0.46l0 -0c0.44,-0.16 0.88,-0.35 1.3,-0.57 0.43,-0.22 0.84,-0.47 1.23,-0.75 0.06,-0.38 0.11,-0.77 0.15,-1.16 0.04,-0.38 0.08,-0.77 0.11,-1.16 0.03,-0.41 0.06,-0.82 0.07,-1.23 0.02,-0.39 0.02,-0.79 0.02,-1.18 -0.28,-0.33 -0.59,-0.65 -0.93,-0.95 -0.34,-0.31 -0.71,-0.6 -1.1,-0.87 -0.4,-0.28 -0.82,-0.53 -1.25,-0.76z"/><path class="fil0" d="M7.45 2.46c0.39,0.18 0.78,0.37 1.16,0.58 0.39,0.21 0.77,0.44 1.15,0.68 0.36,0.23 0.72,0.48 1.06,0.73 0.35,0.26 0.68,0.52 0.99,0.79l0.02 0.02 0 0.02c0,0.4 -0,0.8 -0.01,1.2 -0.01,0.4 -0.02,0.8 -0.04,1.19 -0.02,0.4 -0.03,0.79 -0.06,1.18 -0.02,0.39 -0.05,0.78 -0.08,1.17l-0 0.03 -0.02 0.01c-0.37,0.24 -0.76,0.47 -1.15,0.68 -0.38,0.21 -0.77,0.4 -1.16,0.58 -0.35,0.18 -0.71,0.35 -1.05,0.52 -0.35,0.17 -0.7,0.34 -1.05,0.5l-0.02 0.01 -0.02 -0.01c-0.34,-0.19 -0.69,-0.39 -1.03,-0.59 -0.35,-0.2 -0.69,-0.41 -1.03,-0.62 -0.33,-0.21 -0.67,-0.41 -1,-0.63 -0.34,-0.22 -0.67,-0.43 -0.99,-0.65l-0.02 -0.01 -0 -0.03c-0.02,-0.39 -0.03,-0.79 -0.04,-1.19 -0.01,-0.4 -0.01,-0.8 -0.01,-1.2 0,-0.44 0.02,-0.89 0.05,-1.32 0.03,-0.43 0.08,-0.86 0.13,-1.27l0 -0.02 0.02 -0.01c0.34,-0.21 0.68,-0.41 1.03,-0.62 0.35,-0.2 0.69,-0.4 1.03,-0.59 0.35,-0.19 0.7,-0.39 1.06,-0.58 0.35,-0.19 0.7,-0.37 1.05,-0.55l0.02 -0.01 0.02 0.01zm1.11 0.67c-0.37,-0.2 -0.75,-0.39 -1.13,-0.57 -0.35,0.18 -0.69,0.35 -1.03,0.53 -0.35,0.19 -0.7,0.38 -1.05,0.58 -0.35,0.2 -0.69,0.39 -1.03,0.59 -0.34,0.2 -0.67,0.4 -1.01,0.6 -0.05,0.4 -0.1,0.82 -0.13,1.24 -0.03,0.43 -0.05,0.87 -0.05,1.31 0,0.41 0,0.81 0.01,1.2 0.01,0.39 0.02,0.78 0.03,1.16 0.32,0.21 0.65,0.42 0.97,0.63 0.33,0.21 0.66,0.42 1,0.63 0.34,0.21 0.69,0.42 1.03,0.62 0.33,0.19 0.67,0.39 1.01,0.58 0.34,-0.16 0.68,-0.32 1.02,-0.49 0.35,-0.17 0.7,-0.35 1.06,-0.53l0 -0c0.39,-0.18 0.77,-0.37 1.15,-0.58 0.38,-0.21 0.75,-0.43 1.12,-0.66 0.03,-0.38 0.05,-0.76 0.07,-1.14 0.02,-0.39 0.04,-0.79 0.06,-1.18 0.02,-0.4 0.03,-0.79 0.04,-1.19 0.01,-0.39 0.01,-0.78 0.01,-1.18 -0.31,-0.26 -0.63,-0.52 -0.97,-0.77 -0.34,-0.25 -0.69,-0.49 -1.05,-0.72 -0.37,-0.24 -0.75,-0.46 -1.14,-0.68z"/><path class="fil0" d="M7.45 2.69c1.36,0.79 2.73,1.57 4.09,2.36l0 4.75c-1.37,0.79 -2.75,1.58 -4.12,2.38 -1.37,-0.79 -2.74,-1.59 -4.12,-2.38l0 -4.75c1.37,-0.79 2.74,-1.59 4.12,-2.38l0.03 0.01zm1.98 1.26l-2.01 -1.16 -4.02 2.32 0 4.64 4.02 2.32 4.02 -2.32 0 -4.64 -2.01 -1.16z"/></g><text x="0" y="29.86" fill="#000000" font-size="5px" font-weight="bold" font-family="'Helvetica Neue', Helvetica, Arial-Unicode, Arial, Sans-serif">Created by Camilo Farkas</text><text x="0" y="34.86" fill="#000000" font-size="5px" font-weight="bold" font-family="'Helvetica Neue', Helvetica, Arial-Unicode, Arial, Sans-serif">from the Noun Project</text></svg>